<svg width="181" height="22" viewBox="0 0 181 22" fill="none" xmlns="http://www.w3.org/2000/svg">
<path d="M176.906 0.187581C171.208 0.328206 166.359 3.08862 163.188 7.79175C162.005 9.54175 161.302 11.0626 159.448 12.2188C157.667 13.3282 155.495 13.573 153.474 13.1199C148.714 12.047 147.63 6.88029 144.224 4.02612C139.911 0.41154 133.99 -0.729086 128.641 1.03654C126.156 1.85425 123.938 3.32821 122.109 5.17716C120.339 6.96362 119.516 9.36987 117.766 11.1355C114.974 13.9584 110.13 14.0365 107.125 11.5209C105.349 10.0313 104.557 7.80216 103.104 6.03654C101.323 3.86466 98.9896 2.25008 96.375 1.24487C91.3333 -0.692628 85.3698 0.114664 81.0677 3.39071C79.276 4.75529 77.8333 6.34904 76.6615 8.27612C75.6719 9.89591 74.8698 11.1928 73.2188 12.2188C70.4063 13.9688 66.5365 13.6407 64.0104 11.5209C62.6094 10.349 61.9635 8.79696 60.9688 7.31779C59.6094 5.30737 57.8229 3.698 55.7708 2.42196C51.8542 -0.0155444 46.7344 -0.390545 42.4115 1.03654C37.849 2.54175 35.1094 5.81779 32.7031 9.77091C30.9583 12.6355 27.2969 13.8334 24.1302 13.1199C20.0781 12.2084 18.8906 8.48966 16.5156 5.59904C13.6146 2.06779 8.91146 0.302164 4.45313 0.192789C-0.802081 0.0625809 -0.786457 8.198 4.45313 8.32821C6.31771 8.37508 8.11459 8.93237 9.5625 10.1459C11.4531 11.7292 12.3906 14.1772 13.9427 16.0678C17.4635 20.3542 23.5573 22.1303 28.8906 21.198C34.5208 20.2188 38.0313 16.5574 40.8698 11.9011C42.9531 8.47925 47.6875 7.43758 51.1615 9.17196C53.0417 10.1042 54.125 11.599 55.1042 13.3907C56.4375 15.8282 58.5885 17.797 60.9167 19.2501C65.75 22.2553 71.8698 21.9949 76.8281 19.5261C79.1719 18.3595 80.9844 16.4167 82.526 14.349C83.901 12.5053 84.5417 10.7188 86.5833 9.448C89.9219 7.36987 94.6927 8.26571 97.0521 11.4272C98.2969 13.0938 99.1302 14.9167 100.552 16.4897C102.151 18.2657 104.328 19.573 106.542 20.422C110.974 22.1251 115.745 21.6147 119.943 19.5261C121.75 18.6251 123.385 17.1824 124.661 15.6303C126 14.0001 126.781 12.0261 128.26 10.5313C130.609 8.15633 134.453 7.70841 137.391 9.17196C138.849 9.89591 139.943 11.0053 140.781 12.3855C141.974 14.3386 143.141 16.1511 144.917 17.6407C148.625 20.7449 153.474 22.0313 158.234 21.198C162.781 20.4063 166.516 17.6563 169.073 13.8803C169.974 12.5365 170.521 11.0886 171.854 10.073C173.354 8.93758 175.042 8.37508 176.906 8.32821C182.146 8.198 182.156 0.0573726 176.906 0.187581Z" fill="#FFFAF4"/>
</svg>
